Coordinates
version=1
nRows=24
nColumns=24
inDegrees=yes

Units are S.I. units (second, meters, Newtons, ...)
Angles are in degrees.

endheader
time	pelvis_tilt	pelvis_list	pelvis_rotation	pelvis_tx	pelvis_ty	pelvis_tz	hip_flexion_r	hip_adduction_r	hip_rotation_r	knee_angle_r	ankle_angle_r	subtalar_angle_r	mtp_angle_r	hip_flexion_l	hip_adduction_l	hip_rotation_l	knee_angle_l	ankle_angle_l	subtalar_angle_l	mtp_angle_l	lumbar_extension	lumbar_bending	lumbar_rotation
      0.45400000	     -0.06929831	      0.71654223	      3.07857331	     -0.77974658	      0.99002038	      0.29401950	     25.39453371	      1.27678431	     -2.16114520	    -10.63983411	      4.79848808	    -12.21339857	     -0.30516325	    -15.82304545	      4.34826408	      1.90631023	     -5.60807330	      9.64266080	     -2.46328354	      0.47465141	     -2.04789628	      1.55966235	     -2.05584664
      0.45816667	     -0.13600243	      0.72625433	      3.13048767	     -0.77363553	      0.98925127	      0.29420196	     25.32002024	      1.33691644	     -2.21387654	    -10.58328757	      4.63333027	    -12.12480601	     -0.42455783	    -15.67140254	      4.29803886	      1.67081057	     -6.49696726	      9.84546895	     -1.94633632	      0.62062573	     -1.89591909	      1.55190374	     -2.06725691
      0.46233333	     -0.15113463	      0.71752466	      3.16386277	     -0.76747741	      0.98859062	      0.29440956	     25.18365469	      1.42829850	     -2.23995769	    -10.58034119	      4.44801973	    -12.12117702	     -0.51911787	    -15.55579344	      4.22854752	      1.41808716	     -7.42592326	     10.03946949	     -1.48522799	      0.79764779	     -1.79950149	      1.55680124	     -2.14404835
      0.46650000	     -0.18560296	      0.71336137	      3.20063662	     -0.76130111	      0.98794948	      0.29460511	     25.06591350	      1.51302815	     -2.23963863	    -10.63163769	      4.19865807	    -12.14491453	     -0.57646647	    -15.40057655	      4.16494169	      1.21221940	     -8.38182079	     10.16723748	     -1.06910259	      0.98103552	     -1.68296881	      1.56909220	     -2.18991381
      0.47066667	     -0.18836962	      0.68036973	      3.20489760	     -0.75508739	      0.98734795	      0.29486448	     24.92610984	      1.64508963	     -2.20351805	    -10.76109220	      3.93705435	    -12.27024300	     -0.61815176	    -15.24173558	      4.06638703	      0.89196352	     -9.41163142	     10.29445010	     -0.56823908	      1.28449330	     -1.61038071	      1.61862071	     -2.24476953
      0.47483333	     -0.23838668	      0.66351770	      3.24913537	     -0.74884389	      0.98677686	      0.29506849	     24.80767976	      1.74020790	     -2.16988036	    -10.87782352	      3.54238664	    -12.35983399	     -0.62344857	    -15.01623710	      3.98526390	      0.74328203	    -10.46411375	     10.30511752	     -0.25667705	      1.50988065	     -1.46038171	      1.63726632	     -2.27198790
      0.47900000	     -0.25164521	      0.60877730	      3.23944927	     -0.74257874	      0.98623197	      0.29536635	     24.68112417	      1.90069822	     -2.08753713	    -11.09933262	      3.18050245	    -12.61363445	     -0.59653943	    -14.78665911	      3.85885945	      0.41859434	    -11.60170883	     10.33786708	      0.21414229	      1.87687579	     -1.37015078	      1.71612228	     -2.31647102
      0.48316667	     -0.27879042	      0.56356633	      3.24460764	     -0.73630307	      0.98573472	      0.29565079	     24.55257080	      2.04447019	     -1.98320889	    -11.31870441	      2.73515063	    -12.87568892	     -0.54065073	    -14.52089042	      3.74220087	      0.18748532	    -12.76425401	     10.27871301	      0.56619279	      2.31616673	     -1.25108565	      1.77669634	     -2.32881898
      0.48733333	     -0.30124078	      0.50192970	      3.24329221	     -0.73000405	      0.98527878	      0.29595052	     24.41834624	      2.20815910	     -1.85465074	    -11.56753690	      2.25448078	    -13.21193596	     -0.45185001	    -14.23636109	      3.60691357	     -0.02692464	    -13.97052233	     10.15121407	      0.88945036	      2.86697564	     -1.13720455	      1.85786913	     -2.33448436
      0.49150000	     -0.32976726	      0.43863205	      3.23599312	     -0.72370680	      0.98484220	      0.29627003	     24.30115663	      2.37213689	     -1.72023979	    -11.85893793	      1.75043229	    -13.54227389	     -0.34875958	    -13.90810934	      3.46832169	     -0.23164393	    -15.23360962	      9.96391672	      1.16297624	      3.45790653	     -1.01692441	      1.93797795	     -2.32072260
      0.49566667	     -0.24578524	      0.31519624	      3.20647258	     -0.71733985	      0.98464710	      0.29665458	     23.99268657	      2.63088008	     -1.44051635	    -12.02026370	      1.07269423	    -14.22796524	      0.12095422	    -13.69789995	      3.25586103	     -0.46556329	    -16.47479798	      9.58377513	      1.37723710	      6.03169581	     -1.02835344	      2.10155437	     -2.27469195
      0.49983333	     -0.37248086	      0.28295688	      3.22287939	     -0.71107756	      0.98413906	      0.29689759	     24.04781699	      2.71757013	     -1.44481491	    -12.48589663	      0.66758220	    -14.21007914	      0.15484321	    -13.18420519	      3.16307596	     -0.51785377	    -17.86526803	      9.21483554	      1.46349862	      6.23465821	     -0.77753047	      2.14513918	     -2.24310217
      0.50400000	     -0.42321817	      0.19616942	      3.20375348	     -0.70479932	      0.98377252	      0.29725476	     23.98535638	      2.89666927	     -1.30572673	    -12.88288868	      0.17861502	    -14.49725031	      0.19809071	    -12.70769081	      2.99136547	     -0.70033451	    -19.31920674	      8.81456409	      1.69682893	      6.54612365	     -0.62630306	      2.25026580	     -2.20630905
      0.50816667	     -0.42542173	      0.06788567	      3.15578615	     -0.69852393	      0.98351107	      0.29768300	     23.86207505	      3.14707942	     -1.04791117	    -13.27716933	     -0.27745828	    -15.17452173	      0.85496792	    -12.26040311	      2.77480277	     -0.89414822	    -20.78233541	      8.20112499	      1.73122785	     11.92367231	     -0.54527082	      2.41558000	     -2.11866164
      0.51233333	     -0.45425215	     -0.05658568	      3.13079352	     -0.69227513	      0.98321929	      0.29807376	     23.80146478	      3.36090648	     -0.92773328	    -13.74140467	     -0.68364935	    -15.46582655	      0.86142838	    -11.71458676	      2.54265159	     -1.10327896	    -22.37634340	      7.65399248	      2.03232266	     12.05834072	     -0.42723636	      2.57339292	     -2.09374276
      0.51650000	     -0.48580745	     -0.18126611	      3.10314399	     -0.68605169	      0.98296429	      0.29845502	     23.74380907	      3.57168331	     -0.78901440	    -14.20647411	     -1.11367564	    -15.71040498	      0.85773782	    -11.13166395	      2.32240660	     -1.23787447	    -24.00475386	      6.98846388	      2.13945227	     12.18888222	     -0.29946591	      2.72388698	     -2.01528809
      0.52066667	     -0.47975231	     -0.35856108	      3.05701313	     -0.67987390	      0.98277351	      0.29893915	     23.64980650	      3.86660487	     -0.55109342	    -14.69304909	     -1.40613319	    -16.38731862	      0.83454279	    -10.53392288	      2.02123350	     -1.44560649	    -25.71125938	      6.27547658	      2.35832587	     12.66835326	     -0.23694066	      2.94409101	     -1.93157729
      0.52483333	     -0.51914277	     -0.50859783	      3.00427912	     -0.67374360	      0.98250917	      0.29937187	     23.65290238	      4.10397886	     -0.42945147	    -15.26749171	     -1.71225042	    -16.58810583	      0.80991674	     -9.84455039	      1.76078325	     -1.61411293	    -27.47309589	      5.48165830	      2.44925211	     12.98516139	     -0.12095156	      3.13048571	     -1.84109624
      0.52900000	     -0.53706070	     -0.69468413	      2.95780016	     -0.66763728	      0.98229917	      0.29981988	     23.61980001	      4.38435098	     -0.27378866	    -15.82262151	     -1.91135202	    -16.91621033	      0.77117622	     -9.13915197	      1.44952783	     -1.77111454	    -29.28397964	      4.60773452	      2.56319761	     13.38387862	     -0.02776021	      3.35720909	     -1.74178312
      0.53316667	     -0.52306544	     -0.91018702	      2.91013472	     -0.66156599	      0.98214800	      0.30028565	     23.55624990	      4.69719808	     -0.12666403	    -16.38755691	     -2.04459441	    -17.25625139	      0.71043243	     -8.42336599	      1.09225839	     -1.94278848	    -31.14293424	      3.65381121	      2.67826178	     13.89697507	      0.02077968	      3.61945986	     -1.63734187
      0.53733333	     -0.43860096	     -1.16467154	      2.88258935	     -0.65548167	      0.98214042	      0.30073264	     23.38695204	      5.04604946	     -0.00105131	    -16.89681317	     -2.10379341	    -17.50945977	     -0.12118572	     -7.76207126	      0.67573637	     -2.09760736	    -32.99339210	      2.49400851	      2.66410566	     19.59216822	     -0.00627032	      3.93244154	     -1.53925693
      0.54150000	     -0.43553097	     -1.37979919	      2.82966843	     -0.64950561	      0.98199286	      0.30117413	     23.35985955	      5.34543533	      0.09317612	    -17.51599233	     -2.06169597	    -17.63705175	     -0.13991127	     -6.97091328	      0.32113333	     -2.21590054	    -34.90527557	      1.37757102	      2.66003509	     19.62161198	      0.04624633	      4.19358781	     -1.43814945
      0.54566667	     -0.37857031	     -1.63556839	      2.79207239	     -0.64353473	      0.98194808	      0.30160781	     23.24269112	      5.68553049	      0.17673309	    -18.07112839	     -1.96908389	    -17.74471385	     -0.16205485	     -6.20823851	     -0.09405034	     -2.32937591	    -36.83379540	      0.20074969	      2.64572502	     19.66495601	      0.04088767	      4.50090400	     -1.33473739
      0.54983333	     -0.33917796	     -1.89898509	      2.74157400	     -0.63764828	      0.98185458	      0.30206072	     23.16422078	      6.03603522	      0.24725796	    -18.66179517	     -1.83749041	    -17.89871236	     -0.20038388	     -5.39182575	     -0.52238466	     -2.45005697	    -38.79496680	     -0.98112787	      2.63253682	     19.73487092	      0.04018961	      4.82026062	     -1.21598115
